<?xml version="1.0" standalone="no"?><!DOCTYPE svg PUBLIC "-//W3C//DTD SVG 1.1//EN" "http://www.w3.org/Graphics/SVG/1.1/DTD/svg11.dtd"><svg t="1513309277693" class="icon" style="" viewBox="0 0 1086 1024" version="1.1" xmlns="http://www.w3.org/2000/svg" p-id="23116" xmlns:xlink="http://www.w3.org/1999/xlink" width="16.96875" height="16"><defs><style type="text/css"></style></defs><path d="M765.683822 1002.573948c-53.29343 0-105.055465-12.965209-151.423938-37.736975a351.89292 351.89292 0 0 0 23.797243-20.976963c1.715521-1.589776 3.435533-3.242425 5.092673-5.016327 2.205029-2.137665 4.414548-4.342694 6.498323-6.606104 1.41014-1.40565 2.761899-2.874172 4.046295-4.338203 1.598758-1.715521 3.193025-3.426552 4.724419-5.200454 2.209519-2.505918 4.414548-5.016328 6.561195-7.643501 2.146647-2.447537 4.17204-5.016328 6.192942-7.526737a344.869163 344.869163 0 0 0 12.26912-16.387269c2.083774-2.999917 4.167549-5.995342 6.192942-9.053641a360.205564 360.205564 0 0 0 23.550244-41.343163c1.226014-2.510409 2.452028-5.016328 3.556787-7.585119 1.288886-2.690045 2.5149-5.442963 3.61966-8.19588a14.550494 14.550494 0 0 0 0.794889-1.71103c1.167632-2.752918 2.272392-5.505835 3.314279-8.258753 0.794888-1.895157 1.531395-3.790314 2.205028-5.748343 0.920633-2.384664 1.782885-4.710947 2.577773-7.095611 1.163141-3.11668 2.209519-6.300723 3.188534-9.538657a289.909612 289.909612 0 0 0 5.151055-17.617775c1.10476-4.095695 2.146647-8.254262 3.06728-12.412828 0.615252-2.874172 1.226014-5.689962 1.778393-8.564134a2.469991 2.469991 0 0 0 0.184127-0.916142 92.5124 92.5124 0 0 0 1.10476-5.748343c0.489507-2.326283 0.857761-4.710947 1.226014-7.095612 0.799379-4.832201 1.473013-9.664402 2.025393-14.554985 0.368253-2.752918 0.673634-5.568708 0.916142-8.321625 0.062873-0.489507 0.125745-0.916142 0.125745-1.405649 0.368253-3.242425 0.610761-6.421977 0.736506-9.664402 0.368253-4.158567 0.55238-8.375516 0.673634-12.596956 0.121254-3.790314 0.184127-7.585119 0.184127-11.375433 0-7.158484-0.246999-14.312477-0.615253-21.466469a377.823338 377.823338 0 0 0-1.163141-14.375349 427.577944 427.577944 0 0 0-2.761899-21.46647 350.410926 350.410926 0 0 0-5.57769-27.888447c-18.709061-77.431981-62.984777-147.031844-125.237539-197.307394 1.96252-1.037396 3.866659-2.079284 5.82918-2.995425 1.778394-0.979015 3.61966-1.832284 5.398053-2.752918 1.836775-0.85327 3.678042-1.773903 5.57769-2.627172 3.682532-1.652649 7.360574-3.305297 11.038615-4.832202a297.247732 297.247732 0 0 1 13.863387-5.321708c2.205029-0.857761 4.477421-1.652649 6.745322-2.384664 2.820281-0.979015 5.703434-1.895157 8.586588-2.81579 0.857761-0.242508 1.778394-0.547889 2.699027-0.794888 2.5149-0.794888 5.088182-1.468522 7.665955-2.200538 1.163141-0.305381 2.389155-0.610761 3.615169-0.916142a231.272019 231.272019 0 0 1 9.938346-2.384665c3.004408-0.673634 6.008815-1.347268 9.013223-1.899648a260.929878 260.929878 0 0 1 12.084994-2.079283 142.491551 142.491551 0 0 1 8.95035-1.221523c0.493998-0.121254 1.041887-0.184127 1.594267-0.184127a53.800901 53.800901 0 0 1 5.398054-0.610761 96.145533 96.145533 0 0 1 7.239319-0.673634c1.468522-0.184127 2.941535-0.305381 4.414548-0.368253 3.251407-0.242508 6.498322-0.363762 9.812602-0.489508a265.591425 265.591425 0 0 1 11.959249-0.242508c48.694755 0 95.42699 10.643417 138.970691 31.499125 110.637645 53.023976 182.146138 166.41903 182.146138 288.800361 0 176.631321-144.058873 320.236614-321.116829 320.236614z m104.871338-659.739159c-3.004408-1.100269-5.950434-2.205029-8.954841-3.242425-0.489507-0.184127-1.041887-0.368253-1.652648-0.610762-2.640645-0.920633-5.339672-1.773903-8.034208-2.631663-0.309872-0.121254-0.678125-0.242508-1.046379-0.368253a283.734634 283.734634 0 0 0-6.619576-1.95803 261.522676 261.522676 0 0 0-12.327502-3.422061 250.008026 250.008026 0 0 0-9.812602-2.384664c-3.314279-0.736506-6.565686-1.468522-9.875474-2.079283a288.773416 288.773416 0 0 0-9.996728-1.836776c-2.820281-0.489507-5.640562-0.916142-8.465334-1.347268-0.794888-0.121254-1.652649-0.242508-2.510409-0.363762-3.008898-0.368253-6.071688-0.794888-9.138968-1.100269a344.429056 344.429056 0 0 0-17.662683-1.531394c-1.594267-0.121254-3.188534-0.184127-4.782801-0.242509a42.58714 42.58714 0 0 0-3.925041-0.184126 103.618379 103.618379 0 0 0-6.13456-0.184127 379.673586 379.673586 0 0 0-8.465334-0.121254c-49.736642 0-98.247271 9.969783-143.201112 29.172842a361.579777 361.579777 0 0 0-58.812738 31.862888l-1.046378 0.736506-25.634018 17.060904 1.226014 0.794888c-62.679397 50.091423-107.264985 119.632905-126.274936 197.060394a306.53939 306.53939 0 0 1-7.607573-4.648074c-1.778394-1.100269-3.556787-2.26341-5.335181-3.422061-2.020902-1.347268-4.046295-2.690045-6.071688-4.100185-1.836775-1.221523-3.615169-2.505918-5.393563-3.790314a223.017757 223.017757 0 0 1-9.75422-7.33812 208.777135 208.777135 0 0 1-6.808194-5.442962 134.268726 134.268726 0 0 1-6.255814-5.321709c-1.284395-1.041887-2.573282-2.205029-3.862168-3.363679-1.841266-1.652649-3.556787-3.242425-5.335182-4.895073a314.676888 314.676888 0 0 1-24.165496-25.256784 307.464514 307.464514 0 0 1-5.577689-6.727358 287.327348 287.327348 0 0 1-5.398054-6.853103c-1.778394-2.321792-3.493915-4.648074-5.213927-6.969866-1.715521-2.389155-3.372661-4.773819-5.0298-7.158484-1.652649-2.384664-3.246916-4.832201-4.841183-7.275247a300.764101 300.764101 0 0 1-6.871067-11.132924 321.42221 321.42221 0 0 1-21.156598-43.179939 189.084568 189.084568 0 0 1-3.130153-8.19588 185.97687 185.97687 0 0 1-2.941535-8.317134 326.559792 326.559792 0 0 1-2.699026-8.380007c-0.857761-2.811299-1.720012-5.627089-2.514901-8.501261-0.615252-2.137665-1.167632-4.279821-1.720012-6.421977a446.233114 446.233114 0 0 1-3.004407-12.965209c-0.426635-2.200538-0.857761-4.342694-1.284396-6.543231a435.526825 435.526825 0 0 1-1.535885-8.806642 326.447519 326.447519 0 0 1-3.987913-50.58093c0-176.631321 144.063364-320.299486 321.179701-320.299487 177.057956 0 321.12132 143.668165 321.12132 320.299487 0 7.585119-0.305381 15.228619-0.799379 22.813737-0.305381-0.062873-0.55238-0.184127-0.857761-0.30538z m-330.07167 266.476131l-53.356302-53.208103a17.384248 17.384248 0 0 1 0-24.708895l53.356302-53.212593a17.505502 17.505502 0 0 1 24.776258 0l53.356303 53.212593a17.501011 17.501011 0 0 1 0 24.708895l-53.356303 53.208103a17.505502 17.505502 0 0 1-24.776258 0z m-156.143866 19.018933a333.116496 333.116496 0 0 0 20.298837 8.932386c39.560278 15.960635 82.794107 24.646022 128.05782 24.646022 45.196349 0 88.371797-8.685387 127.869203-24.58764a333.156914 333.156914 0 0 0 20.420092-8.990768c2.761899 17.617774 4.234912 35.720565 4.234912 54.070354 0 118.465272-60.53275 222.92794-152.524207 284.210669a334.769144 334.769144 0 0 1-20.056329 12.417319c-50.104896 28.624953-108.185618 44.953841-170.065635 44.953841-189.201331 0-342.583299-152.964314-342.583299-341.581829 0-127.828785 70.282479-239.140064 174.296057-297.732748a309.665051 309.665051 0 0 1 19.993457-10.45929c17.909682 112.353167 90.707061 206.477798 190.059092 254.121684z" p-id="23117" fill="#d81e06"></path></svg>